<svg xmlns="http://www.w3.org/2000/svg" width="92" height="80" fill="none"><circle cx="40" cy="40" r="40" fill="url(#a)"/><g filter="url(#b)"><mask id="c" width="24" height="14" x="28" y="16" maskUnits="userSpaceOnUse" style="mask-type:luminance"><path fill="#fff" d="M28.297 16.397h23.009v13.38H28.298v-13.38Z"/></mask><g mask="url(#c)"><path fill="#A3E5C9" d="m39.785 16.399-11.452 6.59L39.86 29.64l11.41-6.62-11.485-6.621Z"/></g><mask id="d" width="13" height="21" x="39" y="22" maskUnits="userSpaceOnUse" style="mask-type:luminance"><path fill="#fff" d="M39.714 22.9h11.592v19.943H39.714V22.9Z"/></mask><g mask="url(#d)"><path fill="url(#e)" d="m51.27 23.02-11.41 6.621-.058 13.2 11.505-6.643-.037-13.178Z"/></g><mask id="f" width="12" height="21" x="28" y="22" maskUnits="userSpaceOnUse" style="mask-type:luminance"><path fill="#fff" d="M28.297 22.9H39.89v19.943H28.297V22.9Z"/></mask><g mask="url(#f)"><path fill="#24C660" d="m28.333 22.988-.037 13.179 11.505 6.674.058-13.2-11.526-6.653Z"/></g></g><g filter="url(#g)"><mask id="h" width="24" height="14" x="16" y="37" maskUnits="userSpaceOnUse" style="mask-type:luminance"><path fill="#fff" d="M16.661 37.29H39.67v13.379H16.661v-13.38Z"/></mask><g mask="url(#h)"><path fill="#A3E5C9" d="m28.149 37.291-11.452 6.59 11.526 6.653 11.41-6.621L28.15 37.29Z"/></g></g><mask id="i" width="12" height="21" x="28" y="43" maskUnits="userSpaceOnUse" style="mask-type:luminance"><path fill="#fff" d="M28.077 43.793H39.67v19.943H28.077V43.793Z"/></mask><g mask="url(#i)"><path fill="url(#j)" d="m39.634 43.913-11.41 6.62-.059 13.2 11.506-6.643-.037-13.177Z"/></g><mask id="k" width="13" height="21" x="16" y="43" maskUnits="userSpaceOnUse" style="mask-type:luminance"><path fill="#fff" d="M16.661 43.793h11.592v19.943H16.661V43.793Z"/></mask><g mask="url(#k)"><path fill="#24C660" d="m16.697 43.88-.037 13.18 11.505 6.673.058-13.2-11.526-6.652Z"/></g><g filter="url(#l)"><mask id="m" width="24" height="15" x="40" y="36" maskUnits="userSpaceOnUse" style="mask-type:luminance"><path fill="#fff" d="M40.463 36.893H63.47v13.38H40.463v-13.38Z"/></mask><g mask="url(#m)"><path fill="#A3E5C9" d="m51.95 36.895-11.452 6.59 11.527 6.652 11.41-6.621-11.485-6.621Z"/></g></g><mask id="n" width="13" height="21" x="51" y="43" maskUnits="userSpaceOnUse" style="mask-type:luminance"><path fill="#fff" d="M51.879 43.396H63.47v19.943H51.879V43.396Z"/></mask><g mask="url(#n)"><path fill="url(#o)" d="m63.435 43.516-11.41 6.621-.058 13.2 11.505-6.644-.037-13.177Z"/></g><mask id="p" width="13" height="21" x="40" y="43" maskUnits="userSpaceOnUse" style="mask-type:luminance"><path fill="#fff" d="M40.463 43.396h11.592v19.943H40.463V43.396Z"/></mask><g mask="url(#p)"><path fill="#24C660" d="m40.498 43.484-.037 13.178 11.506 6.675.058-13.2-11.527-6.653Z"/></g><defs><linearGradient id="a" x1="40" x2="40" y1="0" y2="80" gradientUnits="userSpaceOnUse"><stop stop-color="#22C55E"/><stop offset="1" stop-color="#0EA5E9"/></linearGradient><linearGradient id="e" x1="45.554" x2="45.554" y1="23.02" y2="42.841" gradientUnits="userSpaceOnUse"><stop stop-color="#10A6E8"/><stop offset="1" stop-color="#22C55E" stop-opacity=".5"/></linearGradient><linearGradient id="j" x1="33.918" x2="33.918" y1="43.913" y2="63.733" gradientUnits="userSpaceOnUse"><stop stop-color="#10A6E8"/><stop offset="1" stop-color="#22C55E" stop-opacity=".5"/></linearGradient><linearGradient id="o" x1="57.719" x2="57.719" y1="43.516" y2="63.337" gradientUnits="userSpaceOnUse"><stop stop-color="#10A6E8"/><stop offset="1" stop-color="#22C55E" stop-opacity=".5"/></linearGradient><filter id="b" width="31.008" height="34.442" x="24.297" y="16.399" color-interpolation-filters="sRGB" filterUnits="userSpaceOnUse"><feFlood flood-opacity="0" result="BackgroundImageFix"/><feColorMatrix in="SourceAlpha" result="hardAlpha" values="0 0 0 0 0 0 0 0 0 0 0 0 0 0 0 0 0 0 127 0"/><feOffset dy="4"/><feGaussianBlur stdDeviation="2"/><feComposite in2="hardAlpha" operator="out"/><feColorMatrix values="0 0 0 0 0 0 0 0 0 0 0 0 0 0 0 0 0 0 0.25 0"/><feBlend in2="BackgroundImageFix" result="effect1_dropShadow_2203_3497"/><feBlend in="SourceGraphic" in2="effect1_dropShadow_2203_3497" result="shape"/></filter><filter id="g" width="50.937" height="21.242" x="16.697" y="37.291" color-interpolation-filters="sRGB" filterUnits="userSpaceOnUse"><feFlood flood-opacity="0" result="BackgroundImageFix"/><feColorMatrix in="SourceAlpha" result="hardAlpha" values="0 0 0 0 0 0 0 0 0 0 0 0 0 0 0 0 0 0 127 0"/><feOffset dx="24" dy="4"/><feGaussianBlur stdDeviation="2"/><feComposite in2="hardAlpha" operator="out"/><feColorMatrix values="0 0 0 0 0 0 0 0 0 0 0 0 0 0 0 0 0 0 0.13 0"/><feBlend in2="BackgroundImageFix" result="effect1_dropShadow_2203_3497"/><feBlend in="SourceGraphic" in2="effect1_dropShadow_2203_3497" result="shape"/></filter><filter id="l" width="70.937" height="61.242" x="20.498" y="12.895" color-interpolation-filters="sRGB" filterUnits="userSpaceOnUse"><feFlood flood-opacity="0" result="BackgroundImageFix"/><feColorMatrix in="SourceAlpha" result="hardAlpha" values="0 0 0 0 0 0 0 0 0 0 0 0 0 0 0 0 0 0 127 0"/><feOffset dx="4"/><feGaussianBlur stdDeviation="12"/><feComposite in2="hardAlpha" operator="out"/><feColorMatrix values="0 0 0 0 0 0 0 0 0 0 0 0 0 0 0 0 0 0 0.13 0"/><feBlend in2="BackgroundImageFix" result="effect1_dropShadow_2203_3497"/><feBlend in="SourceGraphic" in2="effect1_dropShadow_2203_3497" result="shape"/></filter></defs></svg>