<svg xmlns="http://www.w3.org/2000/svg" width="80" height="80" fill="none"><circle cx="40" cy="40" r="40" fill="url(#a)"/><path fill="#A3E5C9" d="m40 16-12 7 12 7 12-7-12-7ZM28 30v7l12 7v-7l-12-7Zm24 0v7l-12 7v-7l12-7Z"/><path fill="#24C660" d="M28 37v7l12 7v-7l-12-7Zm24 0v7l-12 7v-7l12-7Z"/><path fill="#A3E5C9" d="M28 51v7l12 7v-7l-12-7Zm24 0v7l-12 7v-7l12-7Z"/><defs><linearGradient id="a" x1="40" x2="40" y1="0" y2="80" gradientUnits="userSpaceOnUse"><stop stop-color="#22C55E"/><stop offset="1" stop-color="#0EA5E9"/></linearGradient></defs></svg>