<svg xmlns="http://www.w3.org/2000/svg" width="80" height="80" fill="none"><g filter="url(#a)"><circle cx="40" cy="40" r="40" fill="url(#b)"/></g><g filter="url(#c)"><mask id="d" width="24" height="15" x="28" y="16" maskUnits="userSpaceOnUse" style="mask-type:luminance"><path fill="#fff" stroke="#fff" stroke-width=".5" d="M28.297 16.397h23.009v13.38H28.298v-13.38Z"/></mask><g mask="url(#d)"><mask id="f" fill="#fff"><path d="m39.785 16.399-11.452 6.59L39.86 29.64l11.41-6.62-11.485-6.621Z"/></mask><path fill="#A3E5C9" d="m39.785 16.399-11.452 6.59L39.86 29.64l11.41-6.62-11.485-6.621Z"/><path fill="url(#e)" d="m39.91 16.615-.25-.433-2.289 1.332-9.131 5.312-.282.16.282.165 11.557 6.598.062.036.063-.036 11.38-6.675.093-.054-.094-.054-9.215-5.255-2.3-1.312 2.287 1.333 9.166 5.342v-.108l-11.442 6.567h.125l-11.495-6.707v.325l9.181-5.226 2.302-1.31Zm-.25-.433.25.433-.125-.216-.25-.146.125-.07Z" mask="url(#f)"/></g><mask id="g" width="13" height="21" x="39" y="22" maskUnits="userSpaceOnUse" style="mask-type:luminance"><path fill="#fff" d="M39.714 22.9h11.592v19.943H39.714V22.9Z"/></mask><g mask="url(#g)"><path fill="url(#h)" d="m51.27 23.02-11.41 6.621-.058 13.2 11.505-6.643-.037-13.178Z"/></g><mask id="i" width="12" height="21" x="28" y="22" maskUnits="userSpaceOnUse" style="mask-type:luminance"><path fill="#fff" d="M28.297 22.9H39.89v19.943H28.297V22.9Z"/></mask><g mask="url(#i)"><path fill="#24C660" d="m28.333 22.988-.037 13.179 11.505 6.674.058-13.2-11.526-6.653Z"/></g></g><g filter="url(#j)"><g filter="url(#k)"><mask id="l" width="24" height="14" x="16" y="37" maskUnits="userSpaceOnUse" style="mask-type:luminance"><path fill="#fff" d="M16.661 37.29H39.67v13.379H16.661v-13.38Z"/></mask><g mask="url(#l)"><mask id="n" fill="#fff"><path d="m28.149 37.291-11.452 6.59 11.526 6.653 11.41-6.621L28.15 37.29Z"/></mask><path fill="#A3E5C9" d="m28.149 37.291-11.452 6.59 11.526 6.653 11.41-6.621L28.15 37.29Z"/><path fill="url(#m)" d="m28.273 37.508-.249-.433-2.29 1.331-9.13 5.312-.283.161.282.164 11.558 6.599.062.036.063-.036 11.379-6.675.094-.054-.094-.055-9.215-5.255-2.301-1.312 2.288 1.334 9.165 5.342v-.109l-11.441 6.568h.124l-11.494-6.708v.325l9.18-5.225 2.302-1.31Zm-.249-.433.25.433-.125-.217-.25-.145.125-.071Z" mask="url(#n)"/></g></g><mask id="o" width="12" height="21" x="28" y="43" maskUnits="userSpaceOnUse" style="mask-type:luminance"><path fill="#fff" d="M28.077 43.793H39.67v19.943H28.077V43.793Z"/></mask><g mask="url(#o)"><path fill="url(#p)" d="m39.634 43.913-11.41 6.62-.059 13.2 11.506-6.643-.037-13.178Z"/></g><mask id="q" width="13" height="21" x="16" y="43" maskUnits="userSpaceOnUse" style="mask-type:luminance"><path fill="#fff" d="M16.661 43.793h11.592v19.943H16.661V43.793Z"/></mask><g mask="url(#q)"><path fill="#24C660" d="m16.697 43.88-.037 13.18 11.505 6.673.058-13.2-11.526-6.652Z"/></g></g><g filter="url(#r)"><mask id="s" width="26" height="15" x="39" y="36" maskUnits="userSpaceOnUse" style="mask-type:luminance"><path fill="#fff" stroke="#fff" stroke-width="1.333" d="M40.463 36.893H63.47v13.38H40.463v-13.38Z"/></mask><g mask="url(#s)"><mask id="u" fill="#fff"><path d="m51.95 36.895-11.452 6.59 11.527 6.652 11.41-6.621-11.485-6.621Z"/></mask><path fill="#A3E5C9" d="m51.95 36.895-11.452 6.59 11.527 6.652 11.41-6.621-11.485-6.621Z"/><path fill="url(#t)" d="m52.075 37.111-.25-.433-2.289 1.332-9.131 5.312-.282.16.282.165 11.557 6.598.062.036.063-.036 11.38-6.675.093-.054-.094-.054-9.215-5.255-2.3-1.312 2.288 1.333 9.165 5.342v-.108l-11.442 6.567h.125a431664.5 431664.5 0 0 0-11.495-6.707v.325l9.181-5.226 2.302-1.31Zm-.25-.433.25.433-.125-.216-.25-.146.126-.071Z" mask="url(#u)"/></g><mask id="v" width="13" height="21" x="51" y="43" maskUnits="userSpaceOnUse" style="mask-type:luminance"><path fill="#fff" d="M51.879 43.396H63.47v19.943H51.879V43.396Z"/></mask><g mask="url(#v)"><path fill="url(#w)" d="m63.435 43.516-11.41 6.621-.058 13.2 11.505-6.644-.037-13.177Z"/></g><mask id="x" width="13" height="21" x="40" y="43" maskUnits="userSpaceOnUse" style="mask-type:luminance"><path fill="#fff" d="M40.463 43.396h11.592v19.943H40.463V43.396Z"/></mask><g mask="url(#x)"><path fill="#24C660" d="m40.498 43.484-.037 13.178 11.506 6.675.058-13.2-11.527-6.653Z"/></g></g><defs><linearGradient id="b" x1="40" x2="40" y1="0" y2="80" gradientUnits="userSpaceOnUse"><stop stop-color="#22C55E"/><stop offset="1" stop-color="#0EA5E9"/></linearGradient><linearGradient id="e" x1="39.802" x2="39.802" y1="16.399" y2="29.641" gradientUnits="userSpaceOnUse"><stop offset=".5" stop-color="#fff" stop-opacity="0"/><stop offset=".9" stop-color="#fff"/></linearGradient><linearGradient id="h" x1="45.554" x2="45.554" y1="23.02" y2="42.841" gradientUnits="userSpaceOnUse"><stop stop-color="#10A6E8"/><stop offset="1" stop-color="#22C55E" stop-opacity=".5"/></linearGradient><linearGradient id="m" x1="28.165" x2="28.165" y1="37.291" y2="50.534" gradientUnits="userSpaceOnUse"><stop offset=".5" stop-color="#fff" stop-opacity="0"/><stop offset=".9" stop-color="#fff"/></linearGradient><linearGradient id="p" x1="33.918" x2="33.918" y1="43.913" y2="63.733" gradientUnits="userSpaceOnUse"><stop stop-color="#10A6E8"/><stop offset="1" stop-color="#22C55E" stop-opacity=".5"/></linearGradient><linearGradient id="t" x1="51.967" x2="51.967" y1="36.895" y2="50.137" gradientUnits="userSpaceOnUse"><stop offset=".5" stop-color="#fff" stop-opacity="0"/><stop offset=".9" stop-color="#fff"/></linearGradient><linearGradient id="w" x1="57.719" x2="57.719" y1="43.516" y2="63.337" gradientUnits="userSpaceOnUse"><stop stop-color="#10A6E8"/><stop offset="1" stop-color="#22C55E" stop-opacity=".5"/></linearGradient><filter id="a" width="82" height="82" x="0" y="0" color-interpolation-filters="sRGB" filterUnits="userSpaceOnUse"><feFlood flood-opacity="0" result="BackgroundImageFix"/><feBlend in="SourceGraphic" in2="BackgroundImageFix" result="shape"/><feColorMatrix in="SourceAlpha" result="hardAlpha" values="0 0 0 0 0 0 0 0 0 0 0 0 0 0 0 0 0 0 127 0"/><feOffset dx="2" dy="2"/><feGaussianBlur stdDeviation="4"/><feComposite in2="hardAlpha" k2="-1" k3="1" operator="arithmetic"/><feColorMatrix values="0 0 0 0 0 0 0 0 0 0 0 0 0 0 0 0 0 0 0.25 0"/><feBlend in2="shape" result="effect1_innerShadow_2223_3393"/></filter><filter id="c" width="31.008" height="34.442" x="25.297" y="15.399" color-interpolation-filters="sRGB" filterUnits="userSpaceOnUse"><feFlood flood-opacity="0" result="BackgroundImageFix"/><feColorMatrix in="SourceAlpha" result="hardAlpha" values="0 0 0 0 0 0 0 0 0 0 0 0 0 0 0 0 0 0 127 0"/><feOffset dx="1" dy="3"/><feGaussianBlur stdDeviation="2"/><feComposite in2="hardAlpha" operator="out"/><feColorMatrix values="0 0 0 0 0 0 0 0 0 0 0 0 0 0 0 0 0 0 0.25 0"/><feBlend in2="BackgroundImageFix" result="effect1_dropShadow_2223_3393"/><feBlend in="SourceGraphic" in2="effect1_dropShadow_2223_3393" result="shape"/></filter><filter id="j" width="31.008" height="34.442" x="13.661" y="36.291" color-interpolation-filters="sRGB" filterUnits="userSpaceOnUse"><feFlood flood-opacity="0" result="BackgroundImageFix"/><feColorMatrix in="SourceAlpha" result="hardAlpha" values="0 0 0 0 0 0 0 0 0 0 0 0 0 0 0 0 0 0 127 0"/><feOffset dx="1" dy="3"/><feGaussianBlur stdDeviation="2"/><feComposite in2="hardAlpha" operator="out"/><feColorMatrix values="0 0 0 0 0 0 0 0 0 0 0 0 0 0 0 0 0 0 0.25 0"/><feBlend in2="BackgroundImageFix" result="effect1_dropShadow_2223_3393"/><feBlend in="SourceGraphic" in2="effect1_dropShadow_2223_3393" result="shape"/></filter><filter id="k" width="50.937" height="21.242" x="16.697" y="37.291" color-interpolation-filters="sRGB" filterUnits="userSpaceOnUse"><feFlood flood-opacity="0" result="BackgroundImageFix"/><feColorMatrix in="SourceAlpha" result="hardAlpha" values="0 0 0 0 0 0 0 0 0 0 0 0 0 0 0 0 0 0 127 0"/><feOffset dx="24" dy="4"/><feGaussianBlur stdDeviation="2"/><feComposite in2="hardAlpha" operator="out"/><feColorMatrix values="0 0 0 0 0 0 0 0 0 0 0 0 0 0 0 0 0 0 0.13 0"/><feBlend in2="BackgroundImageFix" result="effect1_dropShadow_2223_3393"/><feBlend in="SourceGraphic" in2="effect1_dropShadow_2223_3393" result="shape"/></filter><filter id="r" width="31.008" height="34.442" x="36.463" y="36.895" color-interpolation-filters="sRGB" filterUnits="userSpaceOnUse"><feFlood flood-opacity="0" result="BackgroundImageFix"/><feColorMatrix in="SourceAlpha" result="hardAlpha" values="0 0 0 0 0 0 0 0 0 0 0 0 0 0 0 0 0 0 127 0"/><feOffset dy="4"/><feGaussianBlur stdDeviation="2"/><feComposite in2="hardAlpha" operator="out"/><feColorMatrix values="0 0 0 0 0 0 0 0 0 0 0 0 0 0 0 0 0 0 0.25 0"/><feBlend in2="BackgroundImageFix" result="effect1_dropShadow_2223_3393"/><feBlend in="SourceGraphic" in2="effect1_dropShadow_2223_3393" result="shape"/></filter></defs></svg>