<svg width="92" height="80" viewBox="0 0 92 80" fill="none" xmlns="http://www.w3.org/2000/svg">
<circle cx="40" cy="40" r="40" fill="url(#paint0_linear_white)"/>
<g filter="url(#filter0_d_white)">
<mask id="mask0_white" style="mask-type:luminance" maskUnits="userSpaceOnUse" x="28" y="16" width="24" height="14">
<path d="M28.2975 16.3967H51.3058V29.7762H28.2975V16.3967Z" fill="white"/>
</mask>
<g mask="url(#mask0_white)">
<path d="M39.7851 16.3988L28.3333 22.9883L39.8595 29.6412L51.27 23.02L39.7851 16.3988Z" fill="#E0F2FE"/>
</g>
<mask id="mask1_white" style="mask-type:luminance" maskUnits="userSpaceOnUse" x="39" y="22" width="13" height="21">
<path d="M39.7135 22.9002H51.3058V42.843H39.7135V22.9002Z" fill="white"/>
</mask>
<g mask="url(#mask1_white)">
<path d="M51.2699 23.02L39.8594 29.6412L39.8016 42.841L51.3071 36.1977L51.2699 23.02Z" fill="url(#paint1_linear_white)"/>
</g>
<mask id="mask2_white" style="mask-type:luminance" maskUnits="userSpaceOnUse" x="28" y="22" width="12" height="21">
<path d="M28.2975 22.9002H39.8898V42.843H28.2975V22.9002Z" fill="white"/>
</mask>
<g mask="url(#mask2_white)">
<path d="M28.3332 22.9883L28.296 36.1667L39.8015 42.8409L39.8594 29.6412L28.3332 22.9883Z" fill="#86EFAC"/>
</g>
</g>
<g filter="url(#filter1_d_white)">
<mask id="mask3_white" style="mask-type:luminance" maskUnits="userSpaceOnUse" x="16" y="37" width="24" height="14">
<path d="M16.6611 37.2893H39.6694V50.6688H16.6611V37.2893Z" fill="white"/>
</mask>
<g mask="url(#mask3_white)">
<path d="M28.1488 37.2914L16.697 43.8809L28.2231 50.5338L39.6336 43.9126L28.1488 37.2914Z" fill="#E0F2FE"/>
</g>
</g>
<mask id="mask4_white" style="mask-type:luminance" maskUnits="userSpaceOnUse" x="28" y="43" width="12" height="21">
<path d="M28.0771 43.7927H39.6694V63.7356H28.0771V43.7927Z" fill="white"/>
</mask>
<g mask="url(#mask4_white)">
<path d="M39.6336 43.9126L28.2231 50.5338L28.1653 63.7335L39.6708 57.0903L39.6336 43.9126Z" fill="url(#paint2_linear_white)"/>
</g>
<mask id="mask5_white" style="mask-type:luminance" maskUnits="userSpaceOnUse" x="16" y="43" width="13" height="21">
<path d="M16.6611 43.7927H28.2534V63.7356H16.6611V43.7927Z" fill="white"/>
</mask>
<g mask="url(#mask5_white)">
<path d="M16.6969 43.8809L16.6597 57.0593L28.1652 63.7335L28.2231 50.5338L16.6969 43.8809Z" fill="#86EFAC"/>
</g>
<g filter="url(#filter2_d_white)">
<mask id="mask6_white" style="mask-type:luminance" maskUnits="userSpaceOnUse" x="40" y="36" width="24" height="15">
<path d="M40.4628 36.8926H63.471V50.2721H40.4628V36.8926Z" fill="white"/>
</mask>
<g mask="url(#mask6_white)">
<path d="M51.9503 36.8946L40.4985 43.4842L52.0246 50.1371L63.4351 43.5159L51.9503 36.8946Z" fill="#E0F2FE"/>
</g>
</g>
<mask id="mask7_white" style="mask-type:luminance" maskUnits="userSpaceOnUse" x="51" y="43" width="13" height="21">
<path d="M51.8787 43.396H63.4709V63.3388H51.8787V43.396Z" fill="white"/>
</mask>
<g mask="url(#mask7_white)">
<path d="M63.4349 43.5158L52.0244 50.137L51.9666 63.3368L63.4721 56.6935L63.4349 43.5158Z" fill="url(#paint3_linear_white)"/>
</g>
<mask id="mask8_white" style="mask-type:luminance" maskUnits="userSpaceOnUse" x="40" y="43" width="13" height="21">
<path d="M40.4626 43.396H52.0549V63.3388H40.4626V43.396Z" fill="white"/>
</mask>
<g mask="url(#mask8_white)">
<path d="M40.4984 43.4841L40.4612 56.6625L51.9667 63.3367L52.0245 50.137L40.4984 43.4841Z" fill="#86EFAC"/>
</g>
<defs>
<filter id="filter0_d_white" x="24.2975" y="16.3988" width="31.0083" height="34.4422" filterUnits="userSpaceOnUse" color-interpolation-filters="sRGB">
<feFlood flood-opacity="0" result="BackgroundImageFix"/>
<feColorMatrix in="SourceAlpha" type="matrix" values="0 0 0 0 0 0 0 0 0 0 0 0 0 0 0 0 0 0 127 0" result="hardAlpha"/>
<feOffset dy="4"/>
<feGaussianBlur stdDeviation="2"/>
<feComposite in2="hardAlpha" operator="out"/>
<feColorMatrix type="matrix" values="0 0 0 0 0 0 0 0 0 0 0 0 0 0 0 0 0 0 0.25 0"/>
<feBlend mode="normal" in2="BackgroundImageFix" result="effect1_dropShadow_white"/>
<feBlend mode="normal" in="SourceGraphic" in2="effect1_dropShadow_white" result="shape"/>
</filter>
<filter id="filter1_d_white" x="16.697" y="37.2914" width="50.9366" height="21.2424" filterUnits="userSpaceOnUse" color-interpolation-filters="sRGB">
<feFlood flood-opacity="0" result="BackgroundImageFix"/>
<feColorMatrix in="SourceAlpha" type="matrix" values="0 0 0 0 0 0 0 0 0 0 0 0 0 0 0 0 0 0 127 0" result="hardAlpha"/>
<feOffset dx="24" dy="4"/>
<feGaussianBlur stdDeviation="2"/>
<feComposite in2="hardAlpha" operator="out"/>
<feColorMatrix type="matrix" values="0 0 0 0 0 0 0 0 0 0 0 0 0 0 0 0 0 0 0.13 0"/>
<feBlend mode="normal" in2="BackgroundImageFix" result="effect1_dropShadow_white"/>
<feBlend mode="normal" in="SourceGraphic" in2="effect1_dropShadow_white" result="shape"/>
</filter>
<filter id="filter2_d_white" x="20.4985" y="12.8946" width="70.9366" height="61.2424" filterUnits="userSpaceOnUse" color-interpolation-filters="sRGB">
<feFlood flood-opacity="0" result="BackgroundImageFix"/>
<feColorMatrix in="SourceAlpha" type="matrix" values="0 0 0 0 0 0 0 0 0 0 0 0 0 0 0 0 0 0 127 0" result="hardAlpha"/>
<feOffset dx="4"/>
<feGaussianBlur stdDeviation="12"/>
<feComposite in2="hardAlpha" operator="out"/>
<feColorMatrix type="matrix" values="0 0 0 0 0 0 0 0 0 0 0 0 0 0 0 0 0 0 0.13 0"/>
<feBlend mode="normal" in2="BackgroundImageFix" result="effect1_dropShadow_white"/>
<feBlend mode="normal" in="SourceGraphic" in2="effect1_dropShadow_white" result="shape"/>
</filter>
<linearGradient id="paint0_linear_white" x1="40" y1="0" x2="40" y2="80" gradientUnits="userSpaceOnUse">
<stop stop-color="#86EFAC"/>
<stop offset="1" stop-color="#7DD3FC"/>
</linearGradient>
<linearGradient id="paint1_linear_white" x1="45.5543" y1="23.02" x2="45.5543" y2="42.841" gradientUnits="userSpaceOnUse">
<stop stop-color="#7DD3FC"/>
<stop offset="1" stop-color="#86EFAC" stop-opacity="0.5"/>
</linearGradient>
<linearGradient id="paint2_linear_white" x1="33.918" y1="43.9126" x2="33.918" y2="63.7335" gradientUnits="userSpaceOnUse">
<stop stop-color="#7DD3FC"/>
<stop offset="1" stop-color="#86EFAC" stop-opacity="0.5"/>
</linearGradient>
<linearGradient id="paint3_linear_white" x1="57.7193" y1="43.5158" x2="57.7193" y2="63.3368" gradientUnits="userSpaceOnUse">
<stop stop-color="#7DD3FC"/>
<stop offset="1" stop-color="#86EFAC" stop-opacity="0.5"/>
</linearGradient>
</defs>
</svg>
