<svg width="80" height="80" viewBox="0 0 80 80" fill="none" xmlns="http://www.w3.org/2000/svg">
  <!-- Background circle -->
  <circle cx="40" cy="40" r="40" fill="url(#gradient)"/>
  
  <!-- Pod shapes with simplified design -->
  <g fill="#A3E5C9">
    <!-- Top pod -->
    <path d="M40 16L28 23L40 30L52 23L40 16Z"/>
    <!-- Left pod -->
    <path d="M28 30L28 37L40 44L40 37L28 30Z"/>
    <!-- Right pod -->
    <path d="M52 30L52 37L40 44L40 37L52 30Z"/>
  </g>
  
  <!-- Green accents -->
  <g fill="#24C660">
    <path d="M28 37L28 44L40 51L40 44L28 37Z"/>
    <path d="M52 37L52 44L40 51L40 44L52 37Z"/>
  </g>
  
  <!-- Bottom pod -->
  <g fill="#A3E5C9">
    <path d="M28 51L28 58L40 65L40 58L28 51Z"/>
    <path d="M52 51L52 58L40 65L40 58L52 51Z"/>
  </g>
  
  <defs>
    <linearGradient id="gradient" x1="40" y1="0" x2="40" y2="80" gradientUnits="userSpaceOnUse">
      <stop stop-color="#22C55E"/>
      <stop offset="1" stop-color="#0EA5E9"/>
    </linearGradient>
  </defs>
</svg>
