<svg xmlns="http://www.w3.org/2000/svg" width="32" height="32" fill="none"><circle cx="16" cy="16" r="16" fill="url(#a)"/><g filter="url(#b)"><mask id="c" width="10" height="6" x="11" y="6" maskUnits="userSpaceOnUse" style="mask-type:luminance"><path fill="#fff" d="M11.297 6.397h9.009v5.38h-9.009v-5.38Z"/></mask><g mask="url(#c)"><path fill="#A3E5C9" d="m16.785 6.399-5.452 3.59 5.527 2.652 3.41-2.621-3.485-3.621Z"/></g><mask id="d" width="5" height="8" x="15" y="9" maskUnits="userSpaceOnUse" style="mask-type:luminance"><path fill="#fff" d="M15.713 9.9h4.593v7.943h-4.593V9.9Z"/></mask><g mask="url(#d)"><path fill="url(#e)" d="m20.27 10.02-3.41 2.621-.058 5.2 3.505-2.643-.037-5.178Z"/></g><mask id="f" width="5" height="8" x="11" y="9" maskUnits="userSpaceOnUse" style="mask-type:luminance"><path fill="#fff" d="M11.297 9.9h4.593v7.943h-4.593V9.9Z"/></mask><g mask="url(#f)"><path fill="#24C660" d="m11.333 9.988-.037 5.179 5.506 2.674.057-5.2-5.526-2.653Z"/></g></g><g filter="url(#g)"><mask id="h" width="10" height="6" x="7" y="15" maskUnits="userSpaceOnUse" style="mask-type:luminance"><path fill="#fff" d="M7.661 15.29h9.008v5.379H7.661v-5.38Z"/></mask><g mask="url(#h)"><path fill="#A3E5C9" d="m12.149 15.291-4.452 2.59 4.526 1.653 4.41-1.621-4.484-2.622Z"/></g></g><mask id="i" width="5" height="8" x="11" y="17" maskUnits="userSpaceOnUse" style="mask-type:luminance"><path fill="#fff" d="M11.077 17.793h4.592v7.943h-4.592v-7.943Z"/></mask><g mask="url(#i)"><path fill="url(#j)" d="m16.634 17.913-4.41 1.62-.059 6.2 4.506-2.643-.037-5.177Z"/></g><mask id="k" width="5" height="8" x="7" y="17" maskUnits="userSpaceOnUse" style="mask-type:luminance"><path fill="#fff" d="M7.661 17.793h3.592v7.943H7.661v-7.943Z"/></mask><g mask="url(#k)"><path fill="#24C660" d="m7.697 17.88-.037 5.18 4.505 2.674.058-6.2-4.526-1.653Z"/></g><g filter="url(#l)"><mask id="m" width="10" height="6" x="16" y="14" maskUnits="userSpaceOnUse" style="mask-type:luminance"><path fill="#fff" d="M16.463 14.893h9.008v4.38h-9.008v-4.38Z"/></mask><g mask="url(#m)"><path fill="#A3E5C9" d="m20.95 14.895-4.451 2.59 3.526 1.652 4.41-1.621-3.485-2.621Z"/></g></g><mask id="n" width="5" height="8" x="20" y="17" maskUnits="userSpaceOnUse" style="mask-type:luminance"><path fill="#fff" d="M20.879 17.396h3.592v7.943h-3.592v-7.943Z"/></mask><g mask="url(#n)"><path fill="url(#o)" d="m24.435 17.516-4.41 1.621-.058 6.2 4.505-2.643-.037-5.178Z"/></g><mask id="p" width="5" height="8" x="16" y="17" maskUnits="userSpaceOnUse" style="mask-type:luminance"><path fill="#fff" d="M16.463 17.396h3.592v7.943h-3.592v-7.943Z"/></mask><g mask="url(#p)"><path fill="#24C660" d="m16.498 17.484-.037 5.178 4.506 2.675.058-6.2-4.527-1.653Z"/></g><defs><linearGradient id="a" x1="16" x2="16" y1="0" y2="32" gradientUnits="userSpaceOnUse"><stop stop-color="#22C55E"/><stop offset="1" stop-color="#0EA5E9"/></linearGradient><linearGradient id="e" x1="18.554" x2="18.554" y1="10.02" y2="17.841" gradientUnits="userSpaceOnUse"><stop stop-color="#10A6E8"/><stop offset="1" stop-color="#22C55E" stop-opacity=".5"/></linearGradient><linearGradient id="j" x1="13.918" x2="13.918" y1="17.913" y2="25.733" gradientUnits="userSpaceOnUse"><stop stop-color="#10A6E8"/><stop offset="1" stop-color="#22C55E" stop-opacity=".5"/></linearGradient><linearGradient id="o" x1="21.72" x2="21.72" y1="17.516" y2="25.337" gradientUnits="userSpaceOnUse"><stop stop-color="#10A6E9"/><stop offset="1" stop-color="#22C55E" stop-opacity=".5"/></linearGradient><filter id="b" width="13.008" height="13.442" x="9.297" y="6.399" color-interpolation-filters="sRGB" filterUnits="userSpaceOnUse"><feFlood flood-opacity="0" result="BackgroundImageFix"/><feColorMatrix in="SourceAlpha" result="hardAlpha" values="0 0 0 0 0 0 0 0 0 0 0 0 0 0 0 0 0 0 127 0"/><feOffset dy="2"/><feGaussianBlur stdDeviation="1"/><feComposite in2="hardAlpha" operator="out"/><feColorMatrix values="0 0 0 0 0 0 0 0 0 0 0 0 0 0 0 0 0 0 0.25 0"/><feBlend in2="BackgroundImageFix" result="effect1_dropShadow_favicon"/><feBlend in="SourceGraphic" in2="effect1_dropShadow_favicon" result="shape"/></filter><filter id="g" width="16.937" height="8.242" x="7.697" y="15.291" color-interpolation-filters="sRGB" filterUnits="userSpaceOnUse"><feFlood flood-opacity="0" result="BackgroundImageFix"/><feColorMatrix in="SourceAlpha" result="hardAlpha" values="0 0 0 0 0 0 0 0 0 0 0 0 0 0 0 0 0 0 127 0"/><feOffset dx="8" dy="2"/><feGaussianBlur stdDeviation="1"/><feComposite in2="hardAlpha" operator="out"/><feColorMatrix values="0 0 0 0 0 0 0 0 0 0 0 0 0 0 0 0 0 0 0.13 0"/><feBlend in2="BackgroundImageFix" result="effect1_dropShadow_favicon"/><feBlend in="SourceGraphic" in2="effect1_dropShadow_favicon" result="shape"/></filter><filter id="l" width="22.937" height="23.242" x="6.498" y="4.895" color-interpolation-filters="sRGB" filterUnits="userSpaceOnUse"><feFlood flood-opacity="0" result="BackgroundImageFix"/><feColorMatrix in="SourceAlpha" result="hardAlpha" values="0 0 0 0 0 0 0 0 0 0 0 0 0 0 0 0 0 0 127 0"/><feOffset dx="2"/><feGaussianBlur stdDeviation="4"/><feComposite in2="hardAlpha" operator="out"/><feColorMatrix values="0 0 0 0 0 0 0 0 0 0 0 0 0 0 0 0 0 0 0.13 0"/><feBlend in2="BackgroundImageFix" result="effect1_dropShadow_favicon"/><feBlend in="SourceGraphic" in2="effect1_dropShadow_favicon" result="shape"/></filter></defs></svg>